<svg width="48" height="45" viewBox="0 0 48 45" fill="none" xmlns="http://www.w3.org/2000/svg">
<path d="M26.796 37.9525C31.1422 37.3019 35.2202 35.1744 38.0525 31.6995C39.6831 29.6958 40.7333 27.456 41.219 25.1529H43.0262C42.5185 27.7957 41.3483 30.3724 39.4749 32.6697C36.2926 36.5677 31.6815 38.9284 26.796 39.5906V37.9525ZM6.66748 25.1529C7.4749 28.9502 9.76782 32.4941 13.4359 34.9843C15.7446 36.5562 18.3434 37.5322 20.999 37.941V39.5848C17.9712 39.1616 15.0002 38.0734 12.3761 36.2827C8.24446 33.4758 5.69291 29.4482 4.86658 25.1529H6.66748ZM37.9705 19.827H41.3547L41.3483 19.7867C40.7018 15.7188 38.3521 11.8812 34.4507 9.22974C32.1167 7.64059 29.4863 6.66177 26.796 6.2616V4.62063C29.8585 5.03519 32.8611 6.12629 35.5167 7.93136C39.8061 10.8477 42.3892 15.0739 43.1083 19.5506C43.124 19.6427 43.1398 19.7348 43.1461 19.827H48V20.5927H37.9705V19.827ZM8.41162 11.5473C11.5372 7.71832 16.0347 5.3749 20.8224 4.66093V0H21.5731V9.35065H20.8224V6.30478C16.5835 7.00435 12.6127 9.11458 9.83405 12.5146C8.00791 14.7515 6.9198 17.282 6.5224 19.8644H4.73096C5.13466 16.9423 6.34578 14.0749 8.41162 11.5473Z" fill="white"/>
<path d="M26.2409 8.01485C28.7104 8.3488 31.1264 9.22686 33.2647 10.6836C36.7215 13.0328 38.8125 16.4385 39.3834 20.0486C39.4023 20.1292 39.4086 20.2156 39.4244 20.2991H37.9799C37.9799 20.2789 37.9704 20.2588 37.9704 20.2358C37.4469 16.9596 35.5482 13.8648 32.41 11.7315C30.5271 10.4504 28.4108 9.66157 26.2409 9.33626V8.01485ZM0 24.4073H10.0359V24.6002C10.6887 27.6432 12.537 30.4846 15.4764 32.4826C17.3341 33.7493 19.4347 34.5381 21.573 34.8663V36.1906C19.1256 35.848 16.738 34.9728 14.6217 33.5305C11.4898 31.4001 9.47763 28.4032 8.70175 25.1731H0V24.4073ZM25.8782 34.8087H26.6351C29.9878 34.2186 33.1102 32.5315 35.3085 29.8369C36.6332 28.2218 37.4721 26.4167 37.8664 24.5627H39.3203C38.9166 26.6902 37.9704 28.7659 36.4628 30.6171C34.0406 33.5766 30.6091 35.4363 26.9253 36.0898V44.43H25.8782V34.8087ZM11.4331 13.597C13.9752 10.4734 17.6653 8.57623 21.573 8.02636V9.35065C18.1005 9.88613 14.8488 11.5991 12.578 14.3772C11.1019 16.1794 10.222 18.2177 9.90656 20.2991H8.46205C8.79322 17.9442 9.76779 15.6353 11.4331 13.597Z" fill="white"/>
<path d="M25.6988 20.492C25.3109 20.135 24.7715 19.9133 24.1723 19.9133C23.5667 19.9133 23.0274 20.135 22.6395 20.492C22.2452 20.8518 22.0024 21.347 22.0024 21.8911C22.0024 22.4381 22.2452 22.9333 22.6395 23.2903C23.0274 23.6501 23.5667 23.8689 24.1723 23.8689C24.7715 23.8689 25.3109 23.6501 25.6988 23.2903C26.0962 22.9333 26.3391 22.4381 26.3391 21.8911C26.3391 21.347 26.0962 20.8518 25.6988 20.492ZM24.1723 19.6024C24.8599 19.6024 25.4906 19.8586 25.9417 20.2732C26.3927 20.6877 26.6765 21.2606 26.6765 21.8911C26.6765 22.5245 26.3927 23.0974 25.9417 23.509C25.4906 23.9236 24.8599 24.1798 24.1723 24.1798C23.4784 24.1798 22.8508 23.9236 22.3966 23.509C21.9456 23.0974 21.6617 22.5245 21.6617 21.8911C21.6617 21.2606 21.9456 20.6877 22.3966 20.2732C22.8508 19.8586 23.4784 19.6024 24.1723 19.6024Z" fill="white"/>
<path d="M19.5233 14.881V13.6718H19.6589L28.6792 13.6373L28.8149 13.6344V14.7399H28.5405V13.8849L19.7977 13.9165V14.881H19.5233Z" fill="white"/>
<path d="M19.5074 31.1526L19.5138 30.0672V29.9434H19.6525L28.6697 29.9492H28.8085V30.073L28.799 31.0547H28.5246L28.5341 30.1968L19.7818 30.191V31.1526H19.5074Z" fill="white"/>
<path d="M24.3359 24.1798L24.3517 28.3715H24.0111L24.0048 24.1798H24.3359Z" fill="white"/>
<path d="M26.2003 27.3984L22.1538 27.3956V27.7036L26.2003 27.7065V27.3984Z" fill="white"/>
<path d="M26.1906 16.9481L22.1472 16.9452V17.2532L26.1906 17.2561V16.9481Z" fill="white"/>
<path d="M24.3363 8.41502L24.3426 21.6752L33.8801 12.8744L33.9748 12.9637L24.3205 21.871L24.207 21.9804V21.8278L24.1975 8.41502H24.3363Z" fill="white"/>
</svg>
